<?xml version="1.0" encoding="UTF-8" standalone="no" ?>
<!DOCTYPE svg PUBLIC "-//W3C//DTD SVG 1.1//EN" "http://www.w3.org/Graphics/SVG/1.1/DTD/svg11.dtd">
<svg xmlns="http://www.w3.org/2000/svg" xmlns:xlink="http://www.w3.org/1999/xlink" version="1.1" width="200" height="200" viewBox="0 0 200 200" xml:space="preserve">
<desc>Created with Fabric.js 5.2.4</desc>
<defs>
</defs>
<rect x="0" y="0" width="100%" height="100%" fill="transparent"></rect>
<g transform="matrix(1 0 0 1 100 100)" id="d894962c-d139-463b-85e0-8e45bc05de3f"  >
<rect style="stroke: none; stroke-width: 1; stroke-dasharray: none; stroke-linecap: butt; stroke-dashoffset: 0; stroke-linejoin: miter; stroke-miterlimit: 4; fill: rgb(255,255,255); fill-rule: nonzero; opacity: 1; visibility: hidden;" vector-effect="non-scaling-stroke"  x="-100" y="-100" rx="0" ry="0" width="200" height="200" />
</g>
<g transform="matrix(Infinity NaN NaN Infinity 0 0)" id="2512dc01-ee2f-48b4-80b7-a1e6ae081416"  >
</g>
<g transform="matrix(0.19 0 0 0.19 49 100)"  >
<g style="" vector-effect="non-scaling-stroke"   >
		<g transform="matrix(1 0 0 1 -666.79 -479.13)"  >
<rect style="stroke: none; stroke-width: 1; stroke-dasharray: none; stroke-linecap: butt; stroke-dashoffset: 0; stroke-linejoin: miter; stroke-miterlimit: 4; fill: rgb(255,255,255); fill-opacity: 0; fill-rule: nonzero; opacity: 1;" vector-effect="non-scaling-stroke"  x="-50" y="-50" rx="0" ry="0" width="100" height="100" />
</g>
		<g transform="matrix(1 0 0 1 -176.79 10.87)"  >
<rect style="stroke: none; stroke-width: 1; stroke-dasharray: none; stroke-linecap: butt; stroke-dashoffset: 0; stroke-linejoin: miter; stroke-miterlimit: 4; fill: rgb(255,255,255); fill-rule: nonzero; opacity: 1; visibility: hidden;" vector-effect="non-scaling-stroke"  x="-540" y="-540" rx="0" ry="0" width="1080" height="1080" />
</g>
		<g transform="matrix(1.23 0 0 1.23 199.84 -484.15)" style=""  >
		<text xml:space="preserve" font-family="Raleway" font-size="96" font-style="normal" font-weight="900" style="stroke: none; stroke-width: 1; stroke-dasharray: none; stroke-linecap: butt; stroke-dashoffset: 0; stroke-linejoin: miter; stroke-miterlimit: 4; fill: rgb(255,255,255); fill-rule: nonzero; opacity: 1; white-space: pre;" ><tspan x="-342.61" y="30.16" >JK Development</tspan></text>
</g>
		<g transform="matrix(0.87 0 0 0.87 272.01 -21.05)" style=""  >
		<text xml:space="preserve" font-family="Raleway" font-size="200" font-style="normal" font-weight="900" style="stroke: none; stroke-width: 1; stroke-dasharray: none; stroke-linecap: butt; stroke-dashoffset: 0; stroke-linejoin: miter; stroke-miterlimit: 4; fill: rgb(93,82,82); fill-rule: nonzero; opacity: 1; white-space: pre;" ><tspan x="-511.23" y="62.83" >ROBO-App</tspan></text>
</g>
		<g transform="matrix(1.74 0 0 1.74 -571.42 422.34)"  >
<circle style="stroke: rgb(0,0,0); stroke-width: 0; stroke-dasharray: none; stroke-linecap: butt; stroke-dashoffset: 0; stroke-linejoin: miter; stroke-miterlimit: 4; fill: rgb(101,101,101); fill-rule: nonzero; opacity: 1;" vector-effect="non-scaling-stroke"  cx="0" cy="0" r="35" />
</g>
		<g transform="matrix(1.74 0 0 1.74 200.79 422.78)"  >
<circle style="stroke: rgb(0,0,0); stroke-width: 0; stroke-dasharray: none; stroke-linecap: butt; stroke-dashoffset: 0; stroke-linejoin: miter; stroke-miterlimit: 4; fill: rgb(101,101,101); fill-rule: nonzero; opacity: 1;" vector-effect="non-scaling-stroke"  cx="0" cy="0" r="35" />
</g>
		<g transform="matrix(1 0 0 1 -176.79 424.24)"  >
<path style="stroke: rgb(0,0,0); stroke-width: 0; stroke-dasharray: none; stroke-linecap: butt; stroke-dashoffset: 0; stroke-linejoin: miter; stroke-miterlimit: 4; fill: rgb(101,101,101); fill-rule: nonzero; opacity: 1;" vector-effect="non-scaling-stroke"  transform=" translate(-50, -50)" d="M 87.103 50.023 C 87.103 60.261 83.5 69.057 76.24199999999999 76.31400000000001 C 68.985 83.571 60.236 87.176 50 87.176 C 39.760999999999996 87.176 31.015 83.572 23.759 76.31400000000001 C 16.5 69.057 12.897 60.261 12.897 50.023 C 12.897 39.739000000000004 16.5 30.992000000000004 23.759 23.734 C 31.014 16.477000000000004 39.760000000000005 12.824000000000002 50 12.824000000000002 C 60.236000000000004 12.824000000000002 68.985 16.477 76.241 23.734 C 83.5 30.992 87.103 39.739 87.103 50.023 z M 44.903 41.228 L 35.677 25.177000000000003 C 31.352 27.676000000000002 27.938 31.088 25.342 35.413000000000004 C 22.796 39.74 21.546999999999997 44.496 21.546999999999997 49.735 L 39.955999999999996 49.735 C 39.956 45.842 41.588 43.006 44.903 41.228 z M 63.984 74.68 L 54.854 58.57900000000001 C 53.987 59.10600000000001 53.172 59.492000000000004 52.304 59.684000000000005 C 51.49 59.876000000000005 50.625 59.972 49.615 59.972 C 47.883 59.972 46.346000000000004 59.54 44.903000000000006 58.578 L 35.485 74.68 C 39.906 77.13000000000001 44.665 78.38000000000001 49.854 78.38000000000001 C 54.951 78.38 59.66 77.178 63.984 74.68 z M 55.335 50.071 C 55.335 48.534 54.855000000000004 47.236 53.795 46.178 C 52.738 45.122 51.441 44.592 49.904 44.592 C 48.46 44.592 47.166000000000004 45.122 46.059000000000005 46.178 C 44.903000000000006 47.236 44.377 48.534 44.377 50.071 C 44.377 51.608999999999995 44.903000000000006 52.955999999999996 45.914 54.013 C 46.97 55.07 48.318 55.598 49.904 55.598 C 51.395 55.598 52.643 55.022 53.749 53.917 C 54.805 52.859 55.335 51.562 55.335 50.071 z M 78.453 49.735 C 78.453 44.688 77.20100000000001 40.027 74.654 35.652 C 72.158 31.327 68.64699999999999 27.819000000000003 64.08099999999999 25.176000000000002 L 54.950999999999986 41.132000000000005 C 58.16999999999999 43.2 59.755999999999986 46.034000000000006 59.755999999999986 49.73500000000001 L 78.453 49.73500000000001 z" stroke-linecap="round" />
</g>
		<g transform="matrix(1.28 0 0 1.28 313.56 -453.58)"  >
<path style="stroke: none; stroke-width: 1; stroke-dasharray: none; stroke-linecap: butt; stroke-dashoffset: 0; stroke-linejoin: miter; stroke-miterlimit: 4; fill: rgb(255,255,255); fill-rule: nonzero; opacity: 1;" vector-effect="non-scaling-stroke"  transform=" translate(-50.86, -55.92)" d="M 50.861 87.432 L 46.214999999999996 87.432 L 42.589999999999996 82.34400000000001 C 42.589999999999996 73.18400000000001 41.827 64.72600000000001 36.92699999999999 59.95500000000001 C 32.855999999999995 56.201000000000015 30.313999999999993 50.85900000000001 30.313999999999993 44.942000000000014 C 30.313999999999993 33.622000000000014 39.535 24.399000000000015 50.85999999999999 24.399000000000015 C 62.17999999999999 24.399000000000015 71.401 33.622000000000014 71.401 44.942000000000014 C 71.401 50.859000000000016 68.859 56.201000000000015 64.788 59.95500000000001 C 59.891999999999996 64.72600000000001 59.126 73.18400000000001 59.126 82.34400000000001 L 55.501 87.432 L 50.861 87.432 z M 44.625 74.33 L 57.093 74.33 C 57.794000000000004 67.77799999999999 59.574000000000005 60.908 62.81700000000001 57.792 C 66.31500000000001 54.547000000000004 68.48 49.969 68.48 44.879000000000005 C 68.48 35.148 60.591 27.261000000000006 50.86200000000001 27.261000000000006 C 41.12800000000001 27.261000000000006 33.239000000000004 35.148 33.239000000000004 44.879000000000005 C 33.239000000000004 49.96900000000001 35.404 54.547000000000004 38.84 57.792 C 42.083 60.908 43.928 67.778 44.625 74.33 z" stroke-linecap="round" />
</g>
		<g transform="matrix(1.28 0 0 1.28 347.67 -468.94)"  >
<path style="stroke: none; stroke-width: 1; stroke-dasharray: none; stroke-linecap: butt; stroke-dashoffset: 0; stroke-linejoin: miter; stroke-miterlimit: 4; fill: rgb(255,255,255); fill-rule: nonzero; opacity: 1;" vector-effect="non-scaling-stroke"  transform=" translate(-77.51, -43.93)" d="M 80.181 45.262 L 74.838 45.262 C 74.076 45.262 73.502 44.688 73.502 43.926 C 73.502 43.227000000000004 74.076 42.589 74.838 42.589 L 80.181 42.589 C 80.944 42.589 81.518 43.227 81.518 43.926 C 81.518 44.688 80.943 45.262 80.181 45.262 z" stroke-linecap="round" />
</g>
		<g transform="matrix(1.28 0 0 1.28 277.25 -468.94)"  >
<path style="stroke: none; stroke-width: 1; stroke-dasharray: none; stroke-linecap: butt; stroke-dashoffset: 0; stroke-linejoin: miter; stroke-miterlimit: 4; fill: rgb(255,255,255); fill-rule: nonzero; opacity: 1;" vector-effect="non-scaling-stroke"  transform=" translate(-22.49, -43.93)" d="M 25.162 45.262 L 19.82 45.262 C 19.057 45.262 18.483 44.688 18.483 43.926 C 18.483 43.227000000000004 19.057000000000002 42.589 19.82 42.589 L 25.162 42.589 C 25.863 42.589 26.499 43.227 26.499 43.926 C 26.499 44.688 25.863 45.262 25.162 45.262 z" stroke-linecap="round" />
</g>
		<g transform="matrix(1.28 0 0 1.28 337.35 -493.8)"  >
<path style="stroke: none; stroke-width: 1; stroke-dasharray: none; stroke-linecap: butt; stroke-dashoffset: 0; stroke-linejoin: miter; stroke-miterlimit: 4; fill: rgb(255,255,255); fill-rule: nonzero; opacity: 1;" vector-effect="non-scaling-stroke"  transform=" translate(-69.44, -24.49)" d="M 72.297 23.571 L 68.47999999999999 27.325000000000003 C 67.97099999999999 27.833000000000002 67.14299999999999 27.833000000000002 66.63399999999999 27.325000000000003 C 66.05999999999999 26.816000000000003 66.05999999999999 25.988000000000003 66.63399999999999 25.416000000000004 L 70.38599999999998 21.665000000000003 C 70.89399999999998 21.154000000000003 71.78799999999998 21.154000000000003 72.29699999999998 21.665000000000003 C 72.805 22.173 72.805 23.063 72.297 23.571 z" stroke-linecap="round" />
</g>
		<g transform="matrix(1.28 0 0 1.28 287.55 -443.97)"  >
<path style="stroke: none; stroke-width: 1; stroke-dasharray: none; stroke-linecap: butt; stroke-dashoffset: 0; stroke-linejoin: miter; stroke-miterlimit: 4; fill: rgb(255,255,255); fill-rule: nonzero; opacity: 1;" vector-effect="non-scaling-stroke"  transform=" translate(-30.54, -63.42)" d="M 33.366 62.436 L 29.615 66.251 C 29.046 66.76100000000001 28.217 66.76100000000001 27.709 66.251 C 27.201 65.742 27.201 64.85300000000001 27.709 64.34400000000001 L 31.46 60.59100000000001 C 31.968 60.08200000000001 32.858000000000004 60.08200000000001 33.366 60.59100000000001 C 33.879 61.099 33.879 61.927 33.366 62.436 z" stroke-linecap="round" />
</g>
		<g transform="matrix(1.28 0 0 1.28 337.35 -443.97)"  >
<path style="stroke: none; stroke-width: 1; stroke-dasharray: none; stroke-linecap: butt; stroke-dashoffset: 0; stroke-linejoin: miter; stroke-miterlimit: 4; fill: rgb(255,255,255); fill-rule: nonzero; opacity: 1;" vector-effect="non-scaling-stroke"  transform=" translate(-69.44, -63.42)" d="M 70.386 66.251 L 66.634 62.43600000000001 C 66.06 61.92700000000001 66.06 61.099000000000004 66.634 60.59100000000001 C 67.143 60.08200000000001 67.971 60.08200000000001 68.48 60.59100000000001 L 72.297 64.34400000000001 C 72.80499999999999 64.85300000000001 72.80499999999999 65.742 72.297 66.251 C 71.788 66.761 70.894 66.761 70.386 66.251 z" stroke-linecap="round" />
</g>
		<g transform="matrix(1.28 0 0 1.28 287.55 -493.8)"  >
<path style="stroke: none; stroke-width: 1; stroke-dasharray: none; stroke-linecap: butt; stroke-dashoffset: 0; stroke-linejoin: miter; stroke-miterlimit: 4; fill: rgb(255,255,255); fill-rule: nonzero; opacity: 1;" vector-effect="non-scaling-stroke"  transform=" translate(-30.54, -24.49)" d="M 31.459 27.325 L 27.708 23.570999999999998 C 27.2 23.063 27.2 22.173 27.708 21.665 C 28.215999999999998 21.154 29.044999999999998 21.154 29.613999999999997 21.665 L 33.364999999999995 25.416 C 33.87799999999999 25.988 33.87799999999999 26.816 33.364999999999995 27.325 C 32.857 27.833 31.968 27.833 31.459 27.325 z" stroke-linecap="round" />
</g>
		<g transform="matrix(1.28 0 0 1.28 314.13 -503.89)"  >
<path style="stroke: none; stroke-width: 1; stroke-dasharray: none; stroke-linecap: butt; stroke-dashoffset: 0; stroke-linejoin: miter; stroke-miterlimit: 4; fill: rgb(255,255,255); fill-rule: nonzero; opacity: 1;" vector-effect="non-scaling-stroke"  transform=" translate(-51.3, -16.61)" d="M 49.967 19.311 L 49.967 13.902999999999999 C 49.967 13.203999999999999 50.541 12.568999999999999 51.303 12.568999999999999 C 52.004 12.568999999999999 52.64 13.203999999999999 52.64 13.902999999999999 L 52.64 19.311 C 52.64 20.01 52.004 20.645 51.303 20.645 C 50.541 20.646 49.967 20.01 49.967 19.311 z" stroke-linecap="round" />
</g>
</g>
</g>
</svg>