<?xml version="1.0" encoding="UTF-8" standalone="no"?>
<svg
   width="456"
   height="456"
   viewBox="0 0 456 456"
   version="1.1"
   xml:space="preserve"
   style="fill-rule:evenodd;clip-rule:evenodd;stroke-linejoin:round;stroke-miterlimit:2;"
   id="svg10"
   sodipodi:docname="splash.svg"
   inkscape:version="1.2.2 (732a01da63, 2022-12-09)"
   xmlns:inkscape="http://www.inkscape.org/namespaces/inkscape"
   xmlns:sodipodi="http://sodipodi.sourceforge.net/DTD/sodipodi-0.dtd"
   xmlns="http://www.w3.org/2000/svg"
   xmlns:svg="http://www.w3.org/2000/svg"><defs
   id="defs14" /><sodipodi:namedview
   id="namedview12"
   pagecolor="#ffffff"
   bordercolor="#000000"
   borderopacity="0.25"
   inkscape:showpageshadow="2"
   inkscape:pageopacity="0.0"
   inkscape:pagecheckerboard="0"
   inkscape:deskcolor="#d1d1d1"
   showgrid="false"
   inkscape:zoom="2.1973684"
   inkscape:cx="228.45509"
   inkscape:cy="228"
   inkscape:window-width="2560"
   inkscape:window-height="1387"
   inkscape:window-x="1272"
   inkscape:window-y="-8"
   inkscape:window-maximized="1"
   inkscape:current-layer="svg10" />
    <path
   d="m 105.50037,281.60863 c -2.70293,0 -5.00091,-0.90042 -6.893127,-2.70209 -1.892214,-1.84778 -2.837901,-4.04181 -2.837901,-6.58209 0,-2.58722 0.945687,-4.80389 2.837901,-6.65167 1.892217,-1.84778 4.190197,-2.77167 6.893127,-2.77167 2.74819,0 5.06798,0.92389 6.96019,2.77167 1.93749,1.84778 2.90581,4.06445 2.90581,6.65167 0,2.54028 -0.96832,4.73431 -2.90581,6.58209 -1.89221,1.80167 -4.212,2.70209 -6.96019,2.70209 z"
   style="fill:#ffffff;fill-rule:nonzero;stroke-width:0.838376"
   id="path2" />
    <path
   d="M 213.56111,280.08446 H 195.99044 L 149.69953,207.0544 c -1.17121,-1.84778 -2.14037,-3.76515 -2.90581,-5.75126 h -0.40578 c 0.36051,2.12528 0.54076,6.67515 0.54076,13.6496 v 65.13172 h -15.54349 v -99.36009 h 18.71925 l 44.7374,71.29798 c 1.89222,2.95695 3.1087,4.98917 3.64945,6.09751 h 0.26996 c -0.45021,-2.6325 -0.67573,-7.09015 -0.67573,-13.37293 v -64.02256 h 15.47557 z"
   style="fill:#ffffff;fill-rule:nonzero;stroke-width:0.838376"
   id="path4" />
    <path
   d="m 289.25134,280.08446 h -54.40052 v -99.36009 h 52.23835 v 13.99669 h -36.15411 v 28.13085 h 33.31621 v 13.9271 h -33.31621 v 29.37835 h 38.31628 z"
   style="fill:#ffffff;fill-rule:nonzero;stroke-width:0.838376"
   id="path6" />
    <path
   d="M 366.56466,194.72106 H 338.7222 v 85.3634 h -16.08423 v -85.3634 h -27.77455 v -13.99669 h 71.70124 z"
   style="fill:#ffffff;fill-rule:nonzero;stroke-width:0.838376"
   id="path8" />
<rect
   style="fill:#ffff00"
   id="rect118"
   width="347.23352"
   height="344.04791"
   x="0.45508981"
   y="0.45508981" /><rect
   style="fill:#1a1a1a"
   id="rect332"
   width="107.85629"
   height="111.9521"
   x="347.68863"
   y="344.50299" /><rect
   style="fill:#eeffaa"
   id="rect386"
   width="107.85629"
   height="344.50299"
   x="347.68863"
   y="0" /><rect
   style="fill:#eeffaa"
   id="rect648"
   width="347.68863"
   height="111.9521"
   x="-0.45508981"
   y="344.04791" /><text
   xml:space="preserve"
   style="font-weight:bold;font-size:42.6667px;font-family:Bahnschrift;-inkscape-font-specification:'Bahnschrift Bold';fill:#ffffff"
   x="377.26944"
   y="444.62274"
   id="text756"><tspan
     sodipodi:role="line"
     id="tspan754"
     x="377.26944"
     y="444.62274">JK</tspan></text><text
   xml:space="preserve"
   style="font-weight:bold;font-size:42.6667px;font-family:Bahnschrift;-inkscape-font-specification:'Bahnschrift Bold';fill:#000000"
   x="25.485029"
   y="96.934143"
   id="text862"><tspan
     sodipodi:role="line"
     id="tspan860"
     x="25.485029"
     y="96.934143">RoboApp</tspan></text><text
   xml:space="preserve"
   style="font-weight:bold;font-size:26.6667px;font-family:Bahnschrift;-inkscape-font-specification:'Bahnschrift Bold';fill:#000000"
   x="26.850304"
   y="129.24551"
   id="text866"><tspan
     sodipodi:role="line"
     id="tspan864"
     x="26.850304"
     y="129.24551"
     style="font-size:26.6667px">2023</tspan></text></svg>
